<?xml version="1.0" encoding="utf-8"?>
<!-- Generator: Adobe Illustrator 26.5.1, SVG Export Plug-In . SVG Version: 6.00 Build 0)  -->
<svg version="1.1" id="Layer_1" xmlns="http://www.w3.org/2000/svg" xmlns:xlink="http://www.w3.org/1999/xlink" x="0px" y="0px"
	 viewBox="0 0 245.2 234.7" style="enable-background:new 0 0 245.2 234.7;" xml:space="preserve">
<style type="text/css">
	.st0{fill:#606261;}
	.st1{fill:#FFFFFF;}
	.st2{font-family:'AkkuratLL-Regular';}
	.st3{font-size:72px;}
	.st4{letter-spacing:36;}
</style>
<g id="a">
</g>
<g id="b">
	<g id="c">
		<g>
			<g>
				<polygon class="st0" points="77.1,225.3 223.3,225.3 223.3,79.2 156.3,79.2 156.3,156.3 77.1,156.3 				"/>
				<rect x="77.1" y="79.2" class="st0" width="69" height="67"/>
			</g>
			<polygon class="st0" points="146.1,0 0,0 0,146.2 67,146.2 67,69 146.1,69 			"/>
			<rect x="77.1" y="79.2" class="st0" width="69" height="67"/>
		</g>
		<text transform="matrix(1 0 0 1 6.16 59.5155)" class="st1 st2 st3 st4">C</text>
		<text transform="matrix(1 0 0 1 89.54 59.5155)" class="st1 st2 st3 st4">L</text>
		<text transform="matrix(1 0 0 1 164.2 59.5155)" class="st0 st2 st3 st4">S</text>
		<text transform="matrix(1 0 0 1 10.46 136.2055)" class="st1 st2 st3">A</text>
		<text transform="matrix(1 0 0 1 10.46 213.2055)" class="st0 st2 st3">D</text>
	</g>
</g>
</svg>
