<svg id="Layer_1" data-name="Layer 1" xmlns="http://www.w3.org/2000/svg" viewBox="0 0 223 223"><defs><style>.cls-1{fill:#606261;}</style></defs><path class="cls-1" d="M166.72,43.39h6.69c.15,6.77,5.83,11.23,13.4,11.23,7,0,12.09-3.31,12.09-9.07,0-3.89-2.59-7.2-8.57-8.14l-8.06-1.22c-7.78-1.15-13.61-5.4-13.61-13.54,0-8.78,8.5-15.19,17.86-15.19,9.93,0,17.85,6.34,18.14,15.91H198c-.36-6.19-4.61-10-11.52-10-6.34,0-11.17,3.46-11.17,9,0,4.76,3.82,6.77,7.64,7.35L191.41,31c8.5,1.3,14.19,6.49,14.19,14.55,0,9.22-8.64,15-18.79,15C175.28,60.53,166.72,53.69,166.72,43.39Z"/><path class="cls-1" d="M-.29,0V146.15h67V69h79.16V0ZM10,34c0-8.14,1.3-15.7,7-21.1A20.11,20.11,0,0,1,31,7.46c10.22,0,18.58,7,19,17H43.46C43.1,18,37.77,13.51,31,13.51a13,13,0,0,0-9.65,3.89C17.1,21.79,16.6,28.7,16.6,34s.5,12.17,4.75,16.56A13.39,13.39,0,0,0,31,54.48c7.27,0,12-4.47,12.53-11.23h6.55C49.58,53.62,40.94,60.53,31,60.53a19.92,19.92,0,0,1-14-5.26C11.27,49.8,10,42.17,10,34Zm25.69,81.51H23.56V136.2H17.15v-51H35.66c10.44,0,17.28,5.47,17.28,15.19S46.1,115.54,35.66,115.54Zm91.53-56h-31V8.47h6.41V53.54h24.55Z"/><path class="cls-1" d="M35.52,91h-12V109.7h12c6.84,0,10.8-3.09,10.8-9.36S42.36,91,35.52,91Z"/><path class="cls-1" d="M13,197.07h6.7c.14,6.77,5.83,11.24,13.39,11.24,7,0,12.1-3.32,12.1-9.08,0-3.89-2.6-7.2-8.57-8.13l-8.07-1.23c-7.77-1.15-13.61-5.4-13.61-13.54,0-8.78,8.5-15.19,17.86-15.19,9.94,0,17.86,6.34,18.15,15.91h-6.7c-.36-6.19-4.61-10-11.52-10-6.34,0-11.16,3.45-11.16,9,0,4.75,3.81,6.76,7.63,7.34l8.5,1.3c8.49,1.29,14.18,6.48,14.18,14.54,0,9.22-8.64,15-18.79,15C21.55,214.21,13,207.37,13,197.07Z"/><path class="cls-1" d="M223,118.48v-14l-12.06-1.87c-1.08-6.83-1-6.54-2.12-13.38l10.89-5.5-4.34-13.37-12.05,2L201.67,69h-24a78.22,78.22,0,0,1-111,105.65v25.75l5.61,2.86-2,12,13.37,4.35,5.5-10.9,13.38,2.12L104.47,223h14.06l1.86-12.06,13.38-2.12,5.5,10.9,13.37-4.35-1.95-12,12.06-6.15,8.6,8.66,11.37-8.26-5.58-10.86,9.58-9.57,10.85,5.58,8.27-11.37-8.67-8.6,6.15-12.07,12.05,2,4.34-13.37-10.89-5.5c1.08-6.83,1-6.54,2.12-13.37Z"/></svg>