<svg id="Layer_1" data-name="Layer 1" xmlns="http://www.w3.org/2000/svg" width="1025.53" height="1024" viewBox="0 0 1025.53 1024"><defs><style>.cls-1{fill:#606261;}</style></defs><path class="cls-1" d="M767,199.29h30.75c.67,31.08,26.79,51.59,61.52,51.59,32.08,0,55.56-15.21,55.56-41.67,0-17.86-11.91-33.08-39.36-37.37l-37-5.63C802.74,160.92,776,141.41,776,104c0-40.35,39-69.78,82-69.78,45.64,0,82,29.1,83.34,73.09H910.56c-1.66-28.45-21.17-46-52.92-46-29.1,0-51.26,15.87-51.26,41.34,0,21.82,17.53,31.08,35.06,33.73l39,6c39,6,65.15,29.77,65.15,66.81,0,42.33-39.68,68.79-86.31,68.79C806.38,278,767,246.58,767,199.29Z"/><path class="cls-1" d="M0,0V671.26H307.66V317h363.6V0ZM47.13,156.29c0-37.37,5.95-72.09,32.08-96.9C96.4,42.86,119.55,34.26,143.7,34.26c47,0,85.32,32.08,87.3,78.05H200.91C199.25,82.54,174.78,62,143.7,62,126.5,62,110.62,68,99.38,79.9c-19.51,20.17-21.83,51.92-21.83,76.39s2.32,55.89,21.83,76.07c11.24,11.9,28.11,17.86,44.32,17.86,33.4,0,55.23-20.51,57.54-51.6h30.1C229,246.25,189.33,278,143.7,278c-24.15,0-47.3-7.61-64.49-24.15C53.08,228.72,47.13,193.66,47.13,156.29Zm118,374.35H109.55v94.92H80.11V391.08h85c47.95,0,79.37,25.13,79.37,69.78S213.06,530.64,165.11,530.64ZM585.49,273.37H443.28V38.89h29.44v207H585.49Z"/><path class="cls-1" d="M164.45,417.87h-54.9v86h54.9c31.42,0,49.6-14.22,49.6-43S195.87,417.87,164.45,417.87Z"/><path class="cls-1" d="M60.93,905.13H91.69c.66,31.09,26.79,51.59,61.51,51.59,32.08,0,55.56-15.21,55.56-41.67,0-17.86-11.9-33.07-39.35-37.37l-37-5.62c-35.72-5.29-62.51-24.81-62.51-62.18,0-40.34,39-69.78,82-69.78,45.64,0,82,29.1,83.34,73.09H204.46c-1.65-28.44-21.16-46-52.91-46-29.1,0-51.26,15.87-51.26,41.34,0,21.83,17.53,31.09,35.05,33.73l39,6c39,6,65.15,29.77,65.15,66.81,0,42.33-39.69,68.79-86.32,68.79C100.29,983.84,60.93,952.42,60.93,905.13Z"/><path class="cls-1" d="M1025.53,544.18V479.61l-55.4-8.56-9.73-61.44,50.05-25.26c-11.54-35.52-8.42-25.89-20-61.41l-55.33,9c-3.16-6.2-5.58-10.94-7.61-14.94H817.34a357.57,357.57,0,0,1,54.45,190.11c0,198.45-160.88,359.32-359.32,359.32a357.28,357.28,0,0,1-204.81-64.18V920.48l25.8,13.15-9,55.33,61.4,19.95,25.26-50,61.45,9.73,8.56,55.4h64.56l8.56-55.4,61.44-9.73,25.27,50L702.38,989l-9-55.33,55.43-28.25,39.49,39.79,52.23-37.95-25.63-49.85,44-44L908.76,839c21.94-30.21,16-22,38-52.23L906.92,747.3l28.24-55.43,55.33,9c11.54-35.52,8.42-25.9,20-61.41L960.4,614.18l9.73-61.44Z"/></svg>